<?xml version="1.0" standalone="no"?>
<!DOCTYPE svg PUBLIC "-//W3C//DTD SVG 20010904//EN"
 "http://www.w3.org/TR/2001/REC-SVG-20010904/DTD/svg10.dtd">
<svg version="1.0" xmlns="http://www.w3.org/2000/svg"
 width="96.000000pt" height="96.000000pt" viewBox="0 0 96.000000 96.000000"
 preserveAspectRatio="xMidYMid meet">
<metadata>
Created by potrace 1.11, written by Peter Selinger 2001-2013
</metadata>
<g transform="translate(0.000000,96.000000) scale(0.100000,-0.100000)"
fill="#000000" stroke="none">
<path d="M385 866 c-108 -27 -202 -99 -253 -193 -131 -247 9 -534 287 -585
259 -48 501 196 452 457 -6 36 -21 86 -33 110 l-22 45 23 40 22 40 -27 0 -28
0 29 30 c22 23 26 33 17 42 -9 9 -19 5 -42 -17 l-30 -29 0 28 0 27 -40 -22
-40 -23 -47 22 c-92 42 -176 51 -268 28z m231 -97 c53 -26 65 -51 40 -84 -14
-19 -15 -19 -67 5 -166 78 -343 -30 -343 -210 0 -137 96 -234 234 -234 180 0
288 177 210 343 -24 52 -24 53 -5 67 33 24 57 13 84 -41 22 -42 26 -63 26
-135 0 -101 -23 -159 -93 -228 -65 -65 -120 -87 -222 -87 -100 0 -159 23 -225
90 -169 168 -99 457 129 531 62 21 173 12 232 -17z m-69 -144 l37 -16 -27 -27
c-22 -21 -37 -27 -72 -27 -57 -1 -80 -22 -80 -75 0 -52 23 -75 75 -75 53 0 74
23 75 80 0 35 6 50 27 72 l27 27 16 -37 c69 -165 -130 -304 -256 -178 -126
126 13 325 178 256z"/>
</g>
</svg>
